<svg width="1024" height="753" viewBox="0 0 1024 753" fill="none" xmlns="http://www.w3.org/2000/svg">
<g opacity="0.2" filter="url(#filter0_f_175_198)">
<ellipse cx="511.5" cy="28" rx="670.5" ry="350" fill="#338AF3"/>
</g>
<path d="M32.0349 264C33.5302 264 34.6622 264.63 35.4308 265.891C36.2134 267.138 36.6047 268.953 36.6047 271.336C36.6047 273.719 36.2134 275.541 35.4308 276.802C34.6622 278.063 33.5302 278.693 32.0349 278.693C30.5536 278.693 29.4216 278.063 28.639 276.802C27.8564 275.541 27.4651 273.719 27.4651 271.336C27.4651 268.967 27.8564 267.152 28.639 265.891C29.4216 264.63 30.5536 264 32.0349 264ZM28.9534 271.336C28.9534 273.026 29.1072 274.35 29.4146 275.306L34.0683 266.099C33.5791 265.448 32.9013 265.122 32.0349 265.122C31.0706 265.122 30.316 265.635 29.771 266.66C29.2259 267.672 28.9534 269.23 28.9534 271.336ZM32.0349 277.55C33.0131 277.55 33.7748 277.044 34.3198 276.033C34.8648 275.008 35.1373 273.442 35.1373 271.336C35.1373 269.549 34.9627 268.163 34.6133 267.18L29.9596 276.469C30.4627 277.19 31.1545 277.55 32.0349 277.55Z" fill="url(#paint0_linear_175_198)" fill-opacity="0.6"/>
<path d="M33.2926 301.135H36.3741V302.236H28.3874V301.135H31.9511V289.455L28.5551 291.471L27.9682 290.536L32.1607 287.959H33.2926V301.135Z" fill="url(#paint1_linear_175_198)" fill-opacity="0.6"/>
<path d="M32.0349 311.502C33.5302 311.502 34.6622 312.133 35.4308 313.393C36.2134 314.64 36.6047 316.455 36.6047 318.838C36.6047 321.221 36.2134 323.043 35.4308 324.304C34.6622 325.565 33.5302 326.195 32.0349 326.195C30.5536 326.195 29.4216 325.565 28.639 324.304C27.8564 323.043 27.4651 321.221 27.4651 318.838C27.4651 316.469 27.8564 314.654 28.639 313.393C29.4216 312.133 30.5536 311.502 32.0349 311.502ZM28.9534 318.838C28.9534 320.529 29.1072 321.852 29.4146 322.808L34.0683 313.601C33.5791 312.95 32.9013 312.624 32.0349 312.624C31.0706 312.624 30.316 313.137 29.771 314.162C29.2259 315.174 28.9534 316.732 28.9534 318.838ZM32.0349 325.052C33.0131 325.052 33.7748 324.546 34.3198 323.535C34.8648 322.51 35.1373 320.944 35.1373 318.838C35.1373 317.051 34.9627 315.665 34.6133 314.682L29.9596 323.971C30.4627 324.692 31.1545 325.052 32.0349 325.052Z" fill="url(#paint2_linear_175_198)" fill-opacity="0.6"/>
<path d="M33.2926 348.637H36.3741V349.738H28.3874V348.637H31.9511V336.957L28.5551 338.973L27.9682 338.038L32.1607 335.461H33.2926V348.637Z" fill="url(#paint3_linear_175_198)" fill-opacity="0.6"/>
<path d="M33.2926 372.388H36.3741V373.489H28.3874V372.388H31.9511V360.708L28.5551 362.724L27.9682 361.789L32.1607 359.212H33.2926V372.388Z" fill="url(#paint4_linear_175_198)" fill-opacity="0.6"/>
<path d="M32.0349 382.755C33.5302 382.755 34.6622 383.386 35.4308 384.646C36.2134 385.893 36.6047 387.708 36.6047 390.091C36.6047 392.474 36.2134 394.296 35.4308 395.557C34.6622 396.818 33.5302 397.448 32.0349 397.448C30.5536 397.448 29.4216 396.818 28.639 395.557C27.8564 394.296 27.4651 392.474 27.4651 390.091C27.4651 387.722 27.8564 385.907 28.639 384.646C29.4216 383.386 30.5536 382.755 32.0349 382.755ZM28.9534 390.091C28.9534 391.782 29.1072 393.105 29.4146 394.061L34.0683 384.854C33.5791 384.203 32.9013 383.878 32.0349 383.878C31.0706 383.878 30.316 384.39 29.771 385.415C29.2259 386.427 28.9534 387.985 28.9534 390.091ZM32.0349 396.305C33.0131 396.305 33.7748 395.8 34.3198 394.788C34.8648 393.763 35.1373 392.197 35.1373 390.091C35.1373 388.304 34.9627 386.919 34.6133 385.935L29.9596 395.225C30.4627 395.945 31.1545 396.305 32.0349 396.305Z" fill="url(#paint5_linear_175_198)" fill-opacity="0.6"/>
<path d="M33.2926 419.89H36.3741V420.992H28.3874V419.89H31.9511V408.21L28.5551 410.226L27.9682 409.291L32.1607 406.714H33.2926V419.89Z" fill="url(#paint6_linear_175_198)" fill-opacity="0.6"/>
<path d="M32.0349 430.257C33.5302 430.257 34.6622 430.888 35.4308 432.149C36.2134 433.396 36.6047 435.211 36.6047 437.594C36.6047 439.977 36.2134 441.798 35.4308 443.059C34.6622 444.32 33.5302 444.95 32.0349 444.95C30.5536 444.95 29.4216 444.32 28.639 443.059C27.8564 441.798 27.4651 439.977 27.4651 437.594C27.4651 435.224 27.8564 433.409 28.639 432.149C29.4216 430.888 30.5536 430.257 32.0349 430.257ZM28.9534 437.594C28.9534 439.284 29.1072 440.607 29.4146 441.563L34.0683 432.356C33.5791 431.705 32.9013 431.38 32.0349 431.38C31.0706 431.38 30.316 431.892 29.771 432.918C29.2259 433.929 28.9534 435.488 28.9534 437.594ZM32.0349 443.807C33.0131 443.807 33.7748 443.302 34.3198 442.29C34.8648 441.265 35.1373 439.699 35.1373 437.594C35.1373 435.806 34.9627 434.421 34.6133 433.437L29.9596 442.727C30.4627 443.447 31.1545 443.807 32.0349 443.807Z" fill="url(#paint7_linear_175_198)" fill-opacity="0.6"/>
<path d="M32.0349 454.008C33.5302 454.008 34.6622 454.639 35.4308 455.9C36.2134 457.147 36.6047 458.962 36.6047 461.345C36.6047 463.728 36.2134 465.549 35.4308 466.81C34.6622 468.071 33.5302 468.701 32.0349 468.701C30.5536 468.701 29.4216 468.071 28.639 466.81C27.8564 465.549 27.4651 463.728 27.4651 461.345C27.4651 458.975 27.8564 457.16 28.639 455.9C29.4216 454.639 30.5536 454.008 32.0349 454.008ZM28.9534 461.345C28.9534 463.035 29.1072 464.358 29.4146 465.314L34.0683 456.107C33.5791 455.456 32.9013 455.131 32.0349 455.131C31.0706 455.131 30.316 455.643 29.771 456.669C29.2259 457.68 28.9534 459.239 28.9534 461.345ZM32.0349 467.558C33.0131 467.558 33.7748 467.053 34.3198 466.041C34.8648 465.016 35.1373 463.451 35.1373 461.345C35.1373 459.557 34.9627 458.172 34.6133 457.188L29.9596 466.478C30.4627 467.198 31.1545 467.558 32.0349 467.558Z" fill="url(#paint8_linear_175_198)" fill-opacity="0.6"/>
<path d="M33.2926 491.143H36.3741V492.245H28.3874V491.143H31.9511V479.464L28.5551 481.48L27.9682 480.544L32.1607 477.967H33.2926V491.143Z" fill="url(#paint9_linear_175_198)" fill-opacity="0.6"/>
<path d="M32.0349 501.511C33.5302 501.511 34.6622 502.141 35.4308 503.402C36.2134 504.649 36.6047 506.464 36.6047 508.847C36.6047 511.23 36.2134 513.052 35.4308 514.312C34.6622 515.573 33.5302 516.204 32.0349 516.204C30.5536 516.204 29.4216 515.573 28.639 514.312C27.8564 513.052 27.4651 511.23 27.4651 508.847C27.4651 506.478 27.8564 504.663 28.639 503.402C29.4216 502.141 30.5536 501.511 32.0349 501.511ZM28.9534 508.847C28.9534 510.537 29.1072 511.86 29.4146 512.816L34.0683 503.61C33.5791 502.958 32.9013 502.633 32.0349 502.633C31.0706 502.633 30.316 503.145 29.771 504.171C29.2259 505.182 28.9534 506.741 28.9534 508.847ZM32.0349 515.061C33.0131 515.061 33.7748 514.555 34.3198 513.543C34.8648 512.518 35.1373 510.953 35.1373 508.847C35.1373 507.059 34.9627 505.674 34.6133 504.69L29.9596 513.98C30.4627 514.7 31.1545 515.061 32.0349 515.061Z" fill="url(#paint10_linear_175_198)" fill-opacity="0.6"/>
<path d="M33.2926 538.645H36.3741V539.747H28.3874V538.645H31.9511V526.966L28.5551 528.982L27.9682 528.046L32.1607 525.469H33.2926V538.645Z" fill="url(#paint11_linear_175_198)" fill-opacity="0.6"/>
<path d="M33.2926 562.396H36.3741V563.498H28.3874V562.396H31.9511V550.717L28.5551 552.733L27.9682 551.798L32.1607 549.221H33.2926V562.396Z" fill="url(#paint12_linear_175_198)" fill-opacity="0.6"/>
<path d="M70.9651 311.502C72.4604 311.502 73.5924 312.133 74.361 313.393C75.1436 314.64 75.5349 316.455 75.5349 318.838C75.5349 321.221 75.1436 323.043 74.361 324.304C73.5924 325.565 72.4604 326.195 70.9651 326.195C69.4838 326.195 68.3518 325.565 67.5692 324.304C66.7866 323.043 66.3953 321.221 66.3953 318.838C66.3953 316.469 66.7866 314.654 67.5692 313.393C68.3518 312.133 69.4838 311.502 70.9651 311.502ZM67.8836 318.838C67.8836 320.529 68.0374 321.852 68.3448 322.808L72.9985 313.601C72.5093 312.95 71.8315 312.624 70.9651 312.624C70.0008 312.624 69.2462 313.137 68.7012 314.162C68.1561 315.174 67.8836 316.732 67.8836 318.838ZM70.9651 325.052C71.9433 325.052 72.705 324.546 73.25 323.535C73.795 322.51 74.0675 320.944 74.0675 318.838C74.0675 317.051 73.8928 315.665 73.5435 314.682L68.8898 323.971C69.3929 324.692 70.0847 325.052 70.9651 325.052Z" fill="url(#paint13_linear_175_198)" fill-opacity="0.6"/>
<path d="M72.2228 348.637H75.3043V349.738H67.3176V348.637H70.8812V336.957L67.4853 338.973L66.8984 338.038L71.0909 335.461H72.2228V348.637Z" fill="url(#paint14_linear_175_198)" fill-opacity="0.6"/>
<path d="M70.9651 359.004C72.4604 359.004 73.5924 359.635 74.361 360.895C75.1436 362.142 75.5349 363.957 75.5349 366.34C75.5349 368.723 75.1436 370.545 74.361 371.806C73.5924 373.067 72.4604 373.697 70.9651 373.697C69.4838 373.697 68.3518 373.067 67.5692 371.806C66.7866 370.545 66.3953 368.723 66.3953 366.34C66.3953 363.971 66.7866 362.156 67.5692 360.895C68.3518 359.635 69.4838 359.004 70.9651 359.004ZM67.8836 366.34C67.8836 368.031 68.0374 369.354 68.3448 370.31L72.9985 361.103C72.5093 360.452 71.8315 360.126 70.9651 360.126C70.0008 360.126 69.2462 360.639 68.7012 361.664C68.1561 362.676 67.8836 364.234 67.8836 366.34ZM70.9651 372.554C71.9433 372.554 72.705 372.049 73.25 371.037C73.795 370.012 74.0675 368.446 74.0675 366.34C74.0675 364.553 73.8928 363.168 73.5435 362.184L68.8898 371.474C69.3929 372.194 70.0847 372.554 70.9651 372.554Z" fill="url(#paint15_linear_175_198)" fill-opacity="0.6"/>
<path d="M70.9651 382.755C72.4604 382.755 73.5924 383.386 74.361 384.646C75.1436 385.893 75.5349 387.708 75.5349 390.091C75.5349 392.474 75.1436 394.296 74.361 395.557C73.5924 396.818 72.4604 397.448 70.9651 397.448C69.4838 397.448 68.3518 396.818 67.5692 395.557C66.7866 394.296 66.3953 392.474 66.3953 390.091C66.3953 387.722 66.7866 385.907 67.5692 384.646C68.3518 383.386 69.4838 382.755 70.9651 382.755ZM67.8836 390.091C67.8836 391.782 68.0374 393.105 68.3448 394.061L72.9985 384.854C72.5093 384.203 71.8315 383.878 70.9651 383.878C70.0008 383.878 69.2462 384.39 68.7012 385.415C68.1561 386.427 67.8836 387.985 67.8836 390.091ZM70.9651 396.305C71.9433 396.305 72.705 395.8 73.25 394.788C73.795 393.763 74.0675 392.197 74.0675 390.091C74.0675 388.304 73.8928 386.919 73.5435 385.935L68.8898 395.225C69.3929 395.945 70.0847 396.305 70.9651 396.305Z" fill="url(#paint16_linear_175_198)" fill-opacity="0.6"/>
<path d="M72.2228 419.89H75.3043V420.992H67.3176V419.89H70.8812V408.21L67.4853 410.226L66.8984 409.291L71.0909 406.714H72.2228V419.89Z" fill="url(#paint17_linear_175_198)" fill-opacity="0.6"/>
<path d="M70.9651 430.257C72.4604 430.257 73.5924 430.888 74.361 432.149C75.1436 433.396 75.5349 435.211 75.5349 437.594C75.5349 439.977 75.1436 441.798 74.361 443.059C73.5924 444.32 72.4604 444.95 70.9651 444.95C69.4838 444.95 68.3518 444.32 67.5692 443.059C66.7866 441.798 66.3953 439.977 66.3953 437.594C66.3953 435.224 66.7866 433.409 67.5692 432.149C68.3518 430.888 69.4838 430.257 70.9651 430.257ZM67.8836 437.594C67.8836 439.284 68.0374 440.607 68.3448 441.563L72.9985 432.356C72.5093 431.705 71.8315 431.38 70.9651 431.38C70.0008 431.38 69.2462 431.892 68.7012 432.918C68.1561 433.929 67.8836 435.488 67.8836 437.594ZM70.9651 443.807C71.9433 443.807 72.705 443.302 73.25 442.29C73.795 441.265 74.0675 439.699 74.0675 437.594C74.0675 435.806 73.8928 434.421 73.5435 433.437L68.8898 442.727C69.3929 443.447 70.0847 443.807 70.9651 443.807Z" fill="url(#paint18_linear_175_198)" fill-opacity="0.6"/>
<path d="M72.2228 467.392H75.3043V468.494H67.3176V467.392H70.8812V455.713L67.4853 457.728L66.8984 456.793L71.0909 454.216H72.2228V467.392Z" fill="url(#paint19_linear_175_198)" fill-opacity="0.6"/>
<path d="M70.9651 477.76C72.4604 477.76 73.5924 478.39 74.361 479.651C75.1436 480.898 75.5349 482.713 75.5349 485.096C75.5349 487.479 75.1436 489.301 74.361 490.561C73.5924 491.822 72.4604 492.453 70.9651 492.453C69.4838 492.453 68.3518 491.822 67.5692 490.561C66.7866 489.301 66.3953 487.479 66.3953 485.096C66.3953 482.726 66.7866 480.911 67.5692 479.651C68.3518 478.39 69.4838 477.76 70.9651 477.76ZM67.8836 485.096C67.8836 486.786 68.0374 488.109 68.3448 489.065L72.9985 479.859C72.5093 479.207 71.8315 478.882 70.9651 478.882C70.0008 478.882 69.2462 479.394 68.7012 480.42C68.1561 481.431 67.8836 482.99 67.8836 485.096ZM70.9651 491.31C71.9433 491.31 72.705 490.804 73.25 489.792C73.795 488.767 74.0675 487.202 74.0675 485.096C74.0675 483.308 73.8928 481.923 73.5435 480.939L68.8898 490.229C69.3929 490.949 70.0847 491.31 70.9651 491.31Z" fill="url(#paint20_linear_175_198)" fill-opacity="0.6"/>
<path d="M70.9651 501.511C72.4604 501.511 73.5924 502.141 74.361 503.402C75.1436 504.649 75.5349 506.464 75.5349 508.847C75.5349 511.23 75.1436 513.052 74.361 514.312C73.5924 515.573 72.4604 516.204 70.9651 516.204C69.4838 516.204 68.3518 515.573 67.5692 514.312C66.7866 513.052 66.3953 511.23 66.3953 508.847C66.3953 506.478 66.7866 504.663 67.5692 503.402C68.3518 502.141 69.4838 501.511 70.9651 501.511ZM67.8836 508.847C67.8836 510.537 68.0374 511.86 68.3448 512.816L72.9985 503.61C72.5093 502.958 71.8315 502.633 70.9651 502.633C70.0008 502.633 69.2462 503.145 68.7012 504.171C68.1561 505.182 67.8836 506.741 67.8836 508.847ZM70.9651 515.061C71.9433 515.061 72.705 514.555 73.25 513.543C73.795 512.518 74.0675 510.953 74.0675 508.847C74.0675 507.059 73.8928 505.674 73.5435 504.69L68.8898 513.98C69.3929 514.7 70.0847 515.061 70.9651 515.061Z" fill="url(#paint21_linear_175_198)" fill-opacity="0.6"/>
<path d="M72.2228 538.645H75.3043V539.747H67.3176V538.645H70.8812V526.966L67.4853 528.982L66.8984 528.046L71.0909 525.469H72.2228V538.645Z" fill="url(#paint22_linear_175_198)" fill-opacity="0.6"/>
<path d="M70.9651 549.013C72.4604 549.013 73.5924 549.643 74.361 550.904C75.1436 552.151 75.5349 553.966 75.5349 556.349C75.5349 558.732 75.1436 560.554 74.361 561.815C73.5924 563.075 72.4604 563.706 70.9651 563.706C69.4838 563.706 68.3518 563.075 67.5692 561.815C66.7866 560.554 66.3953 558.732 66.3953 556.349C66.3953 553.98 66.7866 552.165 67.5692 550.904C68.3518 549.643 69.4838 549.013 70.9651 549.013ZM67.8836 556.349C67.8836 558.039 68.0374 559.362 68.3448 560.318L72.9985 551.112C72.5093 550.461 71.8315 550.135 70.9651 550.135C70.0008 550.135 69.2462 550.648 68.7012 551.673C68.1561 552.684 67.8836 554.243 67.8836 556.349ZM70.9651 562.563C71.9433 562.563 72.705 562.057 73.25 561.046C73.795 560.02 74.0675 558.455 74.0675 556.349C74.0675 554.562 73.8928 553.176 73.5435 552.192L68.8898 561.482C69.3929 562.202 70.0847 562.563 70.9651 562.563Z" fill="url(#paint23_linear_175_198)" fill-opacity="0.6"/>
<path d="M72.2228 586.148H75.3043V587.249H67.3176V586.148H70.8812V574.468L67.4853 576.484L66.8984 575.549L71.0909 572.972H72.2228V586.148Z" fill="url(#paint24_linear_175_198)" fill-opacity="0.6"/>
<path d="M72.2228 609.899H75.3043V611H67.3176V609.899H70.8812V598.219L67.4853 600.235L66.8984 599.3L71.0909 596.723H72.2228V609.899Z" fill="url(#paint25_linear_175_198)" fill-opacity="0.6"/>
<path d="M12.5698 335.253C14.0651 335.253 15.1971 335.884 15.9657 337.144C16.7483 338.391 17.1396 340.206 17.1396 342.589C17.1396 344.972 16.7483 346.794 15.9657 348.055C15.1971 349.316 14.0651 349.946 12.5698 349.946C11.0885 349.946 9.95649 349.316 9.1739 348.055C8.3913 346.794 8 344.972 8 342.589C8 340.22 8.3913 338.405 9.1739 337.144C9.95649 335.884 11.0885 335.253 12.5698 335.253ZM9.48833 342.589C9.48833 344.28 9.64206 345.603 9.9495 346.559L14.6032 337.352C14.114 336.701 13.4363 336.375 12.5698 336.375C11.6055 336.375 10.8509 336.888 10.3059 337.913C9.76084 338.925 9.48833 340.483 9.48833 342.589ZM12.5698 348.803C13.5481 348.803 14.3097 348.297 14.8547 347.286C15.3997 346.261 15.6722 344.695 15.6722 342.589C15.6722 340.802 15.4976 339.417 15.1482 338.433L10.4945 347.722C10.9976 348.443 11.6894 348.803 12.5698 348.803Z" fill="url(#paint26_linear_175_198)" fill-opacity="0.6"/>
<path d="M12.5698 359.004C14.0651 359.004 15.1971 359.635 15.9657 360.895C16.7483 362.142 17.1396 363.957 17.1396 366.34C17.1396 368.723 16.7483 370.545 15.9657 371.806C15.1971 373.067 14.0651 373.697 12.5698 373.697C11.0885 373.697 9.95649 373.067 9.1739 371.806C8.3913 370.545 8 368.723 8 366.34C8 363.971 8.3913 362.156 9.1739 360.895C9.95649 359.635 11.0885 359.004 12.5698 359.004ZM9.48833 366.34C9.48833 368.031 9.64206 369.354 9.9495 370.31L14.6032 361.103C14.114 360.452 13.4363 360.126 12.5698 360.126C11.6055 360.126 10.8509 360.639 10.3059 361.664C9.76084 362.676 9.48833 364.234 9.48833 366.34ZM12.5698 372.554C13.5481 372.554 14.3097 372.049 14.8547 371.037C15.3997 370.012 15.6722 368.446 15.6722 366.34C15.6722 364.553 15.4976 363.168 15.1482 362.184L10.4945 371.474C10.9976 372.194 11.6894 372.554 12.5698 372.554Z" fill="url(#paint27_linear_175_198)" fill-opacity="0.6"/>
<path d="M13.8276 396.139H16.909V397.24H8.92235V396.139H12.486V384.459L9.09005 386.475L8.5031 385.54L12.6956 382.963H13.8276V396.139Z" fill="url(#paint28_linear_175_198)" fill-opacity="0.6"/>
<path d="M12.5698 406.506C14.0651 406.506 15.1971 407.137 15.9657 408.398C16.7483 409.644 17.1396 411.459 17.1396 413.842C17.1396 416.225 16.7483 418.047 15.9657 419.308C15.1971 420.569 14.0651 421.199 12.5698 421.199C11.0885 421.199 9.95649 420.569 9.1739 419.308C8.3913 418.047 8 416.225 8 413.842C8 411.473 8.3913 409.658 9.1739 408.398C9.95649 407.137 11.0885 406.506 12.5698 406.506ZM9.48833 413.842C9.48833 415.533 9.64206 416.856 9.9495 417.812L14.6032 408.605C14.114 407.954 13.4363 407.629 12.5698 407.629C11.6055 407.629 10.8509 408.141 10.3059 409.166C9.76084 410.178 9.48833 411.737 9.48833 413.842ZM12.5698 420.056C13.5481 420.056 14.3097 419.551 14.8547 418.539C15.3997 417.514 15.6722 415.948 15.6722 413.842C15.6722 412.055 15.4976 410.67 15.1482 409.686L10.4945 418.976C10.9976 419.696 11.6894 420.056 12.5698 420.056Z" fill="url(#paint29_linear_175_198)" fill-opacity="0.6"/>
<path d="M13.8276 443.641H16.909V444.743H8.92235V443.641H12.486V431.962L9.09005 433.977L8.5031 433.042L12.6956 430.465H13.8276V443.641Z" fill="url(#paint30_linear_175_198)" fill-opacity="0.6"/>
<path d="M13.8276 467.392H16.909V468.494H8.92235V467.392H12.486V455.713L9.09005 457.728L8.5031 456.793L12.6956 454.216H13.8276V467.392Z" fill="url(#paint31_linear_175_198)" fill-opacity="0.6"/>
<path d="M52.7577 301.135H55.8392V302.236H47.8525V301.135H51.4162V289.455L48.0202 291.471L47.4333 290.536L51.6258 287.959H52.7577V301.135Z" fill="url(#paint32_linear_175_198)" fill-opacity="0.6"/>
<path d="M51.5 311.502C52.9953 311.502 54.1273 312.133 54.8959 313.393C55.6785 314.64 56.0698 316.455 56.0698 318.838C56.0698 321.221 55.6785 323.043 54.8959 324.304C54.1273 325.565 52.9953 326.195 51.5 326.195C50.0187 326.195 48.8867 325.565 48.1041 324.304C47.3215 323.043 46.9302 321.221 46.9302 318.838C46.9302 316.469 47.3215 314.654 48.1041 313.393C48.8867 312.133 50.0187 311.502 51.5 311.502ZM48.4185 318.838C48.4185 320.529 48.5723 321.852 48.8797 322.808L53.5334 313.601C53.0442 312.95 52.3664 312.624 51.5 312.624C50.5357 312.624 49.7811 313.137 49.2361 314.162C48.691 315.174 48.4185 316.732 48.4185 318.838ZM51.5 325.052C52.4782 325.052 53.2399 324.546 53.7849 323.535C54.3299 322.51 54.6024 320.944 54.6024 318.838C54.6024 317.051 54.4277 315.665 54.0784 314.682L49.4247 323.971C49.9278 324.692 50.6196 325.052 51.5 325.052Z" fill="url(#paint33_linear_175_198)" fill-opacity="0.6"/>
<path d="M52.7577 348.637H55.8392V349.738H47.8525V348.637H51.4162V336.957L48.0202 338.973L47.4333 338.038L51.6258 335.461H52.7577V348.637Z" fill="url(#paint34_linear_175_198)" fill-opacity="0.6"/>
<path d="M52.7577 372.388H55.8392V373.489H47.8525V372.388H51.4162V360.708L48.0202 362.724L47.4333 361.789L51.6258 359.212H52.7577V372.388Z" fill="url(#paint35_linear_175_198)" fill-opacity="0.6"/>
<path d="M51.5 382.755C52.9953 382.755 54.1273 383.386 54.8959 384.646C55.6785 385.893 56.0698 387.708 56.0698 390.091C56.0698 392.474 55.6785 394.296 54.8959 395.557C54.1273 396.818 52.9953 397.448 51.5 397.448C50.0187 397.448 48.8867 396.818 48.1041 395.557C47.3215 394.296 46.9302 392.474 46.9302 390.091C46.9302 387.722 47.3215 385.907 48.1041 384.646C48.8867 383.386 50.0187 382.755 51.5 382.755ZM48.4185 390.091C48.4185 391.782 48.5723 393.105 48.8797 394.061L53.5334 384.854C53.0442 384.203 52.3664 383.878 51.5 383.878C50.5357 383.878 49.7811 384.39 49.2361 385.415C48.691 386.427 48.4185 387.985 48.4185 390.091ZM51.5 396.305C52.4782 396.305 53.2399 395.8 53.7849 394.788C54.3299 393.763 54.6024 392.197 54.6024 390.091C54.6024 388.304 54.4277 386.919 54.0784 385.935L49.4247 395.225C49.9278 395.945 50.6196 396.305 51.5 396.305Z" fill="url(#paint36_linear_175_198)" fill-opacity="0.6"/>
<path d="M52.7577 419.89H55.8392V420.992H47.8525V419.89H51.4162V408.21L48.0202 410.226L47.4333 409.291L51.6258 406.714H52.7577V419.89Z" fill="url(#paint37_linear_175_198)" fill-opacity="0.6"/>
<path d="M52.7577 443.641H55.8392V444.743H47.8525V443.641H51.4162V431.962L48.0202 433.977L47.4333 433.042L51.6258 430.465H52.7577V443.641Z" fill="url(#paint38_linear_175_198)" fill-opacity="0.6"/>
<path d="M51.5 454.008C52.9953 454.008 54.1273 454.639 54.8959 455.9C55.6785 457.147 56.0698 458.962 56.0698 461.345C56.0698 463.728 55.6785 465.549 54.8959 466.81C54.1273 468.071 52.9953 468.701 51.5 468.701C50.0187 468.701 48.8867 468.071 48.1041 466.81C47.3215 465.549 46.9302 463.728 46.9302 461.345C46.9302 458.975 47.3215 457.16 48.1041 455.9C48.8867 454.639 50.0187 454.008 51.5 454.008ZM48.4185 461.345C48.4185 463.035 48.5723 464.358 48.8797 465.314L53.5334 456.107C53.0442 455.456 52.3664 455.131 51.5 455.131C50.5357 455.131 49.7811 455.643 49.2361 456.669C48.691 457.68 48.4185 459.239 48.4185 461.345ZM51.5 467.558C52.4782 467.558 53.2399 467.053 53.7849 466.041C54.3299 465.016 54.6024 463.451 54.6024 461.345C54.6024 459.557 54.4277 458.172 54.0784 457.188L49.4247 466.478C49.9278 467.198 50.6196 467.558 51.5 467.558Z" fill="url(#paint39_linear_175_198)" fill-opacity="0.6"/>
<path d="M52.7577 491.143H55.8392V492.245H47.8525V491.143H51.4162V479.464L48.0202 481.48L47.4333 480.544L51.6258 477.967H52.7577V491.143Z" fill="url(#paint40_linear_175_198)" fill-opacity="0.6"/>
<path d="M51.5 501.511C52.9953 501.511 54.1273 502.141 54.8959 503.402C55.6785 504.649 56.0698 506.464 56.0698 508.847C56.0698 511.23 55.6785 513.052 54.8959 514.312C54.1273 515.573 52.9953 516.204 51.5 516.204C50.0187 516.204 48.8867 515.573 48.1041 514.312C47.3215 513.052 46.9302 511.23 46.9302 508.847C46.9302 506.478 47.3215 504.663 48.1041 503.402C48.8867 502.141 50.0187 501.511 51.5 501.511ZM48.4185 508.847C48.4185 510.537 48.5723 511.86 48.8797 512.816L53.5334 503.61C53.0442 502.958 52.3664 502.633 51.5 502.633C50.5357 502.633 49.7811 503.145 49.2361 504.171C48.691 505.182 48.4185 506.741 48.4185 508.847ZM51.5 515.061C52.4782 515.061 53.2399 514.555 53.7849 513.543C54.3299 512.518 54.6024 510.953 54.6024 508.847C54.6024 507.059 54.4277 505.674 54.0784 504.69L49.4247 513.98C49.9278 514.7 50.6196 515.061 51.5 515.061Z" fill="url(#paint41_linear_175_198)" fill-opacity="0.6"/>
<path d="M90.4302 287.751C91.9255 287.751 93.0575 288.381 93.8261 289.642C94.6087 290.889 95 292.704 95 295.087C95 297.47 94.6087 299.292 93.8261 300.553C93.0575 301.814 91.9255 302.444 90.4302 302.444C88.9489 302.444 87.8169 301.814 87.0343 300.553C86.2517 299.292 85.8604 297.47 85.8604 295.087C85.8604 292.718 86.2517 290.903 87.0343 289.642C87.8169 288.381 88.9489 287.751 90.4302 287.751ZM87.3487 295.087C87.3487 296.777 87.5024 298.101 87.8099 299.057L92.4636 289.85C91.9744 289.199 91.2966 288.873 90.4302 288.873C89.4659 288.873 88.7113 289.386 88.1663 290.411C87.6212 291.423 87.3487 292.981 87.3487 295.087ZM90.4302 301.301C91.4084 301.301 92.1701 300.795 92.7151 299.784C93.2601 298.759 93.5326 297.193 93.5326 295.087C93.5326 293.3 93.3579 291.914 93.0086 290.931L88.3549 300.22C88.858 300.941 89.5498 301.301 90.4302 301.301Z" fill="url(#paint42_linear_175_198)" fill-opacity="0.6"/>
<path d="M91.6879 324.886H94.7694V325.987H86.7827V324.886H90.3463V313.206L86.9504 315.222L86.3635 314.287L90.556 311.71H91.6879V324.886Z" fill="url(#paint43_linear_175_198)" fill-opacity="0.6"/>
<path d="M91.6879 348.637H94.7694V349.738H86.7827V348.637H90.3463V336.957L86.9504 338.973L86.3635 338.038L90.556 335.461H91.6879V348.637Z" fill="url(#paint44_linear_175_198)" fill-opacity="0.6"/>
<path d="M90.4302 359.004C91.9255 359.004 93.0575 359.635 93.8261 360.895C94.6087 362.142 95 363.957 95 366.34C95 368.723 94.6087 370.545 93.8261 371.806C93.0575 373.067 91.9255 373.697 90.4302 373.697C88.9489 373.697 87.8169 373.067 87.0343 371.806C86.2517 370.545 85.8604 368.723 85.8604 366.34C85.8604 363.971 86.2517 362.156 87.0343 360.895C87.8169 359.635 88.9489 359.004 90.4302 359.004ZM87.3487 366.34C87.3487 368.031 87.5024 369.354 87.8099 370.31L92.4636 361.103C91.9744 360.452 91.2966 360.126 90.4302 360.126C89.4659 360.126 88.7113 360.639 88.1663 361.664C87.6212 362.676 87.3487 364.234 87.3487 366.34ZM90.4302 372.554C91.4084 372.554 92.1701 372.049 92.7151 371.037C93.2601 370.012 93.5326 368.446 93.5326 366.34C93.5326 364.553 93.3579 363.168 93.0086 362.184L88.3549 371.474C88.858 372.194 89.5498 372.554 90.4302 372.554Z" fill="url(#paint45_linear_175_198)" fill-opacity="0.6"/>
<path d="M90.4302 382.755C91.9255 382.755 93.0575 383.386 93.8261 384.646C94.6087 385.893 95 387.708 95 390.091C95 392.474 94.6087 394.296 93.8261 395.557C93.0575 396.818 91.9255 397.448 90.4302 397.448C88.9489 397.448 87.8169 396.818 87.0343 395.557C86.2517 394.296 85.8604 392.474 85.8604 390.091C85.8604 387.722 86.2517 385.907 87.0343 384.646C87.8169 383.386 88.9489 382.755 90.4302 382.755ZM87.3487 390.091C87.3487 391.782 87.5024 393.105 87.8099 394.061L92.4636 384.854C91.9744 384.203 91.2966 383.878 90.4302 383.878C89.4659 383.878 88.7113 384.39 88.1663 385.415C87.6212 386.427 87.3487 387.985 87.3487 390.091ZM90.4302 396.305C91.4084 396.305 92.1701 395.8 92.7151 394.788C93.2601 393.763 93.5326 392.197 93.5326 390.091C93.5326 388.304 93.3579 386.919 93.0086 385.935L88.3549 395.225C88.858 395.945 89.5498 396.305 90.4302 396.305Z" fill="url(#paint46_linear_175_198)" fill-opacity="0.6"/>
<g opacity="0.6">
<path d="M918.93 -36C920.356 -36 921.436 -35.395 922.17 -34.1851C922.916 -32.9885 923.29 -31.2468 923.29 -28.9599C923.29 -26.673 922.916 -24.9246 922.17 -23.7147C921.436 -22.5048 920.356 -21.8998 918.93 -21.8998C917.517 -21.8998 916.437 -22.5048 915.69 -23.7147C914.943 -24.9246 914.57 -26.673 914.57 -28.9599C914.57 -31.2335 914.943 -32.9752 915.69 -34.1851C916.437 -35.395 917.517 -36 918.93 -36ZM915.99 -28.9599C915.99 -27.3378 916.137 -26.068 916.43 -25.1506L920.87 -33.9857C920.403 -34.6106 919.756 -34.923 918.93 -34.923C918.01 -34.923 917.29 -34.4311 916.77 -33.4472C916.25 -32.4766 915.99 -30.9808 915.99 -28.9599ZM918.93 -22.9967C919.863 -22.9967 920.59 -23.482 921.11 -24.4526C921.63 -25.4365 921.89 -26.9389 921.89 -28.9599C921.89 -30.675 921.723 -32.0046 921.39 -32.9486L916.95 -24.0338C917.43 -23.3424 918.09 -22.9967 918.93 -22.9967Z" fill="url(#paint47_linear_175_198)"/>
<path d="M920.13 -0.363452H923.07V0.693562H915.45V-0.363452H918.85V-11.5718L915.61 -9.63727L915.05 -10.5347L919.05 -13.0078H920.13V-0.363452Z" fill="url(#paint48_linear_175_198)"/>
<path d="M918.93 9.58561C920.356 9.58561 921.436 10.1906 922.17 11.4005C922.916 12.5971 923.29 14.3389 923.29 16.6257C923.29 18.9126 922.916 20.661 922.17 21.8709C921.436 23.0808 920.356 23.6858 918.93 23.6858C917.517 23.6858 916.437 23.0808 915.69 21.8709C914.943 20.661 914.57 18.9126 914.57 16.6257C914.57 14.3522 914.943 12.6104 915.69 11.4005C916.437 10.1906 917.517 9.58561 918.93 9.58561ZM915.99 16.6257C915.99 18.2478 916.137 19.5176 916.43 20.435L920.87 11.5999C920.403 10.975 919.756 10.6626 918.93 10.6626C918.01 10.6626 917.29 11.1545 916.77 12.1384C916.25 13.109 915.99 14.6048 915.99 16.6257ZM918.93 22.5889C919.863 22.5889 920.59 22.1036 921.11 21.133C921.63 20.1491 921.89 18.6467 921.89 16.6257C921.89 14.9106 921.723 13.581 921.39 12.637L916.95 21.5518C917.43 22.2432 918.09 22.5889 918.93 22.5889Z" fill="url(#paint49_linear_175_198)"/>
<path d="M920.13 45.2221H923.07V46.2792H915.45V45.2221H918.85V34.0138L915.61 35.9483L915.05 35.0509L919.05 32.5778H920.13V45.2221Z" fill="url(#paint50_linear_175_198)"/>
<path d="M920.13 68.015H923.07V69.072H915.45V68.015H918.85V56.8066L915.61 58.7411L915.05 57.8437L919.05 55.3706H920.13V68.015Z" fill="url(#paint51_linear_175_198)"/>
<path d="M918.93 77.964C920.356 77.964 921.436 78.569 922.17 79.7789C922.916 80.9755 923.29 82.7173 923.29 85.0041C923.29 87.291 922.916 89.0394 922.17 90.2493C921.436 91.4593 920.356 92.0642 918.93 92.0642C917.517 92.0642 916.437 91.4593 915.69 90.2493C914.943 89.0394 914.57 87.291 914.57 85.0041C914.57 82.7306 914.943 80.9888 915.69 79.7789C916.437 78.569 917.517 77.964 918.93 77.964ZM915.99 85.0041C915.99 86.6262 916.137 87.896 916.43 88.8134L920.87 79.9783C920.403 79.3534 919.756 79.041 918.93 79.041C918.01 79.041 917.29 79.5329 916.77 80.5168C916.25 81.4874 915.99 82.9832 915.99 85.0041ZM918.93 90.9673C919.863 90.9673 920.59 90.482 921.11 89.5114C921.63 88.5275 921.89 87.0251 921.89 85.0041C921.89 83.289 921.723 81.9594 921.39 81.0154L916.95 89.9302C917.43 90.6216 918.09 90.9673 918.93 90.9673Z" fill="url(#paint52_linear_175_198)"/>
<path d="M920.13 113.601H923.07V114.658H915.45V113.601H918.85V102.392L915.61 104.327L915.05 103.429L919.05 100.956H920.13V113.601Z" fill="url(#paint53_linear_175_198)"/>
<path d="M918.93 123.55C920.356 123.55 921.436 124.155 922.17 125.365C922.916 126.561 923.29 128.303 923.29 130.59C923.29 132.877 922.916 134.625 922.17 135.835C921.436 137.045 920.356 137.65 918.93 137.65C917.517 137.65 916.437 137.045 915.69 135.835C914.943 134.625 914.57 132.877 914.57 130.59C914.57 128.316 914.943 126.574 915.69 125.365C916.437 124.155 917.517 123.55 918.93 123.55ZM915.99 130.59C915.99 132.212 916.137 133.482 916.43 134.399L920.87 125.564C920.403 124.939 919.756 124.627 918.93 124.627C918.01 124.627 917.29 125.119 916.77 126.102C916.25 127.073 915.99 128.569 915.99 130.59ZM918.93 136.553C919.863 136.553 920.59 136.068 921.11 135.097C921.63 134.113 921.89 132.611 921.89 130.59C921.89 128.875 921.723 127.545 921.39 126.601L916.95 135.516C917.43 136.207 918.09 136.553 918.93 136.553Z" fill="url(#paint54_linear_175_198)"/>
<path d="M918.93 146.342C920.356 146.342 921.436 146.947 922.17 148.157C922.916 149.354 923.29 151.096 923.29 153.383C923.29 155.669 922.916 157.418 922.17 158.628C921.436 159.838 920.356 160.443 918.93 160.443C917.517 160.443 916.437 159.838 915.69 158.628C914.943 157.418 914.57 155.669 914.57 153.383C914.57 151.109 914.943 149.367 915.69 148.157C916.437 146.947 917.517 146.342 918.93 146.342ZM915.99 153.383C915.99 155.005 916.137 156.274 916.43 157.192L920.87 148.357C920.403 147.732 919.756 147.419 918.93 147.419C918.01 147.419 917.29 147.911 916.77 148.895C916.25 149.866 915.99 151.362 915.99 153.383ZM918.93 159.346C919.863 159.346 920.59 158.86 921.11 157.89C921.63 156.906 921.89 155.404 921.89 153.383C921.89 151.667 921.723 150.338 921.39 149.394L916.95 158.309C917.43 159 918.09 159.346 918.93 159.346Z" fill="url(#paint55_linear_175_198)"/>
<path d="M920.13 181.979H923.07V183.036H915.45V181.979H918.85V170.771L915.61 172.705L915.05 171.808L919.05 169.335H920.13V181.979Z" fill="url(#paint56_linear_175_198)"/>
<path d="M918.93 191.928C920.356 191.928 921.436 192.533 922.17 193.743C922.916 194.94 923.29 196.681 923.29 198.968C923.29 201.255 922.916 203.003 922.17 204.213C921.436 205.423 920.356 206.028 918.93 206.028C917.517 206.028 916.437 205.423 915.69 204.213C914.943 203.003 914.57 201.255 914.57 198.968C914.57 196.695 914.943 194.953 915.69 193.743C916.437 192.533 917.517 191.928 918.93 191.928ZM915.99 198.968C915.99 200.59 916.137 201.86 916.43 202.777L920.87 193.942C920.403 193.317 919.756 193.005 918.93 193.005C918.01 193.005 917.29 193.497 916.77 194.481C916.25 195.451 915.99 196.947 915.99 198.968ZM918.93 204.931C919.863 204.931 920.59 204.446 921.11 203.475C921.63 202.492 921.89 200.989 921.89 198.968C921.89 197.253 921.723 195.923 921.39 194.979L916.95 203.894C917.43 204.586 918.09 204.931 918.93 204.931Z" fill="url(#paint57_linear_175_198)"/>
<path d="M920.13 227.565H923.07V228.622H915.45V227.565H918.85V216.356L915.61 218.291L915.05 217.393L919.05 214.92H920.13V227.565Z" fill="url(#paint58_linear_175_198)"/>
<path d="M920.13 250.357H923.07V251.414H915.45V250.357H918.85V239.149L915.61 241.084L915.05 240.186L919.05 237.713H920.13V250.357Z" fill="url(#paint59_linear_175_198)"/>
<path d="M956.07 9.58561C957.497 9.58561 958.577 10.1906 959.31 11.4005C960.057 12.5971 960.43 14.3389 960.43 16.6257C960.43 18.9126 960.057 20.661 959.31 21.8709C958.577 23.0808 957.497 23.6858 956.07 23.6858C954.657 23.6858 953.577 23.0808 952.83 21.8709C952.084 20.661 951.71 18.9126 951.71 16.6257C951.71 14.3522 952.084 12.6104 952.83 11.4005C953.577 10.1906 954.657 9.58561 956.07 9.58561ZM953.13 16.6257C953.13 18.2478 953.277 19.5176 953.57 20.435L958.01 11.5999C957.543 10.975 956.897 10.6626 956.07 10.6626C955.15 10.6626 954.43 11.1545 953.91 12.1384C953.39 13.109 953.13 14.6048 953.13 16.6257ZM956.07 22.5889C957.003 22.5889 957.73 22.1036 958.25 21.133C958.77 20.1491 959.03 18.6467 959.03 16.6257C959.03 14.9106 958.863 13.581 958.53 12.637L954.09 21.5518C954.57 22.2432 955.23 22.5889 956.07 22.5889Z" fill="url(#paint60_linear_175_198)"/>
<path d="M957.27 45.2221H960.21V46.2792H952.59V45.2221H955.99V34.0138L952.75 35.9483L952.19 35.0509L956.19 32.5778H957.27V45.2221Z" fill="url(#paint61_linear_175_198)"/>
<path d="M956.07 55.1712C957.497 55.1712 958.577 55.7762 959.31 56.9861C960.057 58.1827 960.43 59.9245 960.43 62.2113C960.43 64.4982 960.057 66.2466 959.31 67.4565C958.577 68.6664 957.497 69.2714 956.07 69.2714C954.657 69.2714 953.577 68.6664 952.83 67.4565C952.084 66.2466 951.71 64.4982 951.71 62.2113C951.71 59.9378 952.084 58.196 952.83 56.9861C953.577 55.7762 954.657 55.1712 956.07 55.1712ZM953.13 62.2113C953.13 63.8334 953.277 65.1032 953.57 66.0206L958.01 57.1855C957.543 56.5606 956.897 56.2482 956.07 56.2482C955.15 56.2482 954.43 56.7401 953.91 57.724C953.39 58.6946 953.13 60.1904 953.13 62.2113ZM956.07 68.1745C957.003 68.1745 957.73 67.6892 958.25 66.7186C958.77 65.7347 959.03 64.2323 959.03 62.2113C959.03 60.4962 958.863 59.1666 958.53 58.2226L954.09 67.1374C954.57 67.8288 955.23 68.1745 956.07 68.1745Z" fill="url(#paint62_linear_175_198)"/>
<path d="M956.07 77.964C957.497 77.964 958.577 78.569 959.31 79.7789C960.057 80.9755 960.43 82.7173 960.43 85.0041C960.43 87.291 960.057 89.0394 959.31 90.2493C958.577 91.4593 957.497 92.0642 956.07 92.0642C954.657 92.0642 953.577 91.4593 952.83 90.2493C952.084 89.0394 951.71 87.291 951.71 85.0041C951.71 82.7306 952.084 80.9888 952.83 79.7789C953.577 78.569 954.657 77.964 956.07 77.964ZM953.13 85.0041C953.13 86.6262 953.277 87.896 953.57 88.8134L958.01 79.9783C957.543 79.3534 956.897 79.041 956.07 79.041C955.15 79.041 954.43 79.5329 953.91 80.5168C953.39 81.4874 953.13 82.9832 953.13 85.0041ZM956.07 90.9673C957.003 90.9673 957.73 90.482 958.25 89.5114C958.77 88.5275 959.03 87.0251 959.03 85.0041C959.03 83.289 958.863 81.9594 958.53 81.0154L954.09 89.9302C954.57 90.6216 955.23 90.9673 956.07 90.9673Z" fill="url(#paint63_linear_175_198)"/>
<path d="M957.27 113.601H960.21V114.658H952.59V113.601H955.99V102.392L952.75 104.327L952.19 103.429L956.19 100.956H957.27V113.601Z" fill="url(#paint64_linear_175_198)"/>
<path d="M956.07 123.55C957.497 123.55 958.577 124.155 959.31 125.365C960.057 126.561 960.43 128.303 960.43 130.59C960.43 132.877 960.057 134.625 959.31 135.835C958.577 137.045 957.497 137.65 956.07 137.65C954.657 137.65 953.577 137.045 952.83 135.835C952.084 134.625 951.71 132.877 951.71 130.59C951.71 128.316 952.084 126.574 952.83 125.365C953.577 124.155 954.657 123.55 956.07 123.55ZM953.13 130.59C953.13 132.212 953.277 133.482 953.57 134.399L958.01 125.564C957.543 124.939 956.897 124.627 956.07 124.627C955.15 124.627 954.43 125.119 953.91 126.102C953.39 127.073 953.13 128.569 953.13 130.59ZM956.07 136.553C957.003 136.553 957.73 136.068 958.25 135.097C958.77 134.113 959.03 132.611 959.03 130.59C959.03 128.875 958.863 127.545 958.53 126.601L954.09 135.516C954.57 136.207 955.23 136.553 956.07 136.553Z" fill="url(#paint65_linear_175_198)"/>
<path d="M957.27 159.186H960.21V160.243H952.59V159.186H955.99V147.978L952.75 149.912L952.19 149.015L956.19 146.542H957.27V159.186Z" fill="url(#paint66_linear_175_198)"/>
<path d="M956.07 169.135C957.497 169.135 958.577 169.74 959.31 170.95C960.057 172.147 960.43 173.888 960.43 176.175C960.43 178.462 960.057 180.211 959.31 181.421C958.577 182.63 957.497 183.235 956.07 183.235C954.657 183.235 953.577 182.63 952.83 181.421C952.084 180.211 951.71 178.462 951.71 176.175C951.71 173.902 952.084 172.16 952.83 170.95C953.577 169.74 954.657 169.135 956.07 169.135ZM953.13 176.175C953.13 177.797 953.277 179.067 953.57 179.985L958.01 171.15C957.543 170.525 956.897 170.212 956.07 170.212C955.15 170.212 954.43 170.704 953.91 171.688C953.39 172.659 953.13 174.154 953.13 176.175ZM956.07 182.139C957.003 182.139 957.73 181.653 958.25 180.683C958.77 179.699 959.03 178.196 959.03 176.175C959.03 174.46 958.863 173.131 958.53 172.187L954.09 181.101C954.57 181.793 955.23 182.139 956.07 182.139Z" fill="url(#paint67_linear_175_198)"/>
<path d="M956.07 191.928C957.497 191.928 958.577 192.533 959.31 193.743C960.057 194.94 960.43 196.681 960.43 198.968C960.43 201.255 960.057 203.003 959.31 204.213C958.577 205.423 957.497 206.028 956.07 206.028C954.657 206.028 953.577 205.423 952.83 204.213C952.084 203.003 951.71 201.255 951.71 198.968C951.71 196.695 952.084 194.953 952.83 193.743C953.577 192.533 954.657 191.928 956.07 191.928ZM953.13 198.968C953.13 200.59 953.277 201.86 953.57 202.777L958.01 193.942C957.543 193.317 956.897 193.005 956.07 193.005C955.15 193.005 954.43 193.497 953.91 194.481C953.39 195.451 953.13 196.947 953.13 198.968ZM956.07 204.931C957.003 204.931 957.73 204.446 958.25 203.475C958.77 202.492 959.03 200.989 959.03 198.968C959.03 197.253 958.863 195.923 958.53 194.979L954.09 203.894C954.57 204.586 955.23 204.931 956.07 204.931Z" fill="url(#paint68_linear_175_198)"/>
<path d="M957.27 227.565H960.21V228.622H952.59V227.565H955.99V216.356L952.75 218.291L952.19 217.393L956.19 214.92H957.27V227.565Z" fill="url(#paint69_linear_175_198)"/>
<path d="M956.07 237.514C957.497 237.514 958.577 238.119 959.31 239.329C960.057 240.525 960.43 242.267 960.43 244.554C960.43 246.841 960.057 248.589 959.31 249.799C958.577 251.009 957.497 251.614 956.07 251.614C954.657 251.614 953.577 251.009 952.83 249.799C952.084 248.589 951.71 246.841 951.71 244.554C951.71 242.28 952.084 240.538 952.83 239.329C953.577 238.119 954.657 237.514 956.07 237.514ZM953.13 244.554C953.13 246.176 953.277 247.446 953.57 248.363L958.01 239.528C957.543 238.903 956.897 238.591 956.07 238.591C955.15 238.591 954.43 239.083 953.91 240.066C953.39 241.037 953.13 242.533 953.13 244.554ZM956.07 250.517C957.003 250.517 957.73 250.032 958.25 249.061C958.77 248.077 959.03 246.575 959.03 244.554C959.03 242.839 958.863 241.509 958.53 240.565L954.09 249.48C954.57 250.171 955.23 250.517 956.07 250.517Z" fill="url(#paint70_linear_175_198)"/>
<path d="M957.27 273.15H960.21V274.207H952.59V273.15H955.99V261.942L952.75 263.876L952.19 262.979L956.19 260.506H957.27V273.15Z" fill="url(#paint71_linear_175_198)"/>
<path d="M957.27 295.943H960.21V297H952.59V295.943H955.99V284.735L952.75 286.669L952.19 285.772L956.19 283.299H957.27V295.943Z" fill="url(#paint72_linear_175_198)"/>
<path d="M900.36 32.3784C901.786 32.3784 902.866 32.9834 903.599 34.1933C904.346 35.3899 904.719 37.1317 904.719 39.4185C904.719 41.7054 904.346 43.4538 903.599 44.6637C902.866 45.8736 901.786 46.4786 900.36 46.4786C898.946 46.4786 897.867 45.8736 897.12 44.6637C896.373 43.4538 896 41.7054 896 39.4185C896 37.145 896.373 35.4032 897.12 34.1933C897.867 32.9834 898.946 32.3784 900.36 32.3784ZM897.42 39.4185C897.42 41.0406 897.567 42.3104 897.86 43.2278L902.3 34.3927C901.833 33.7678 901.186 33.4554 900.36 33.4554C899.44 33.4554 898.72 33.9473 898.2 34.9312C897.68 35.9018 897.42 37.3976 897.42 39.4185ZM900.36 45.3817C901.293 45.3817 902.02 44.8964 902.54 43.9258C903.06 42.9419 903.319 41.4395 903.319 39.4185C903.319 37.7034 903.153 36.3738 902.82 35.4298L898.38 44.3446C898.86 45.036 899.52 45.3817 900.36 45.3817Z" fill="url(#paint73_linear_175_198)"/>
<path d="M900.36 55.1712C901.786 55.1712 902.866 55.7762 903.599 56.9861C904.346 58.1827 904.719 59.9245 904.719 62.2113C904.719 64.4982 904.346 66.2466 903.599 67.4565C902.866 68.6664 901.786 69.2714 900.36 69.2714C898.946 69.2714 897.867 68.6664 897.12 67.4565C896.373 66.2466 896 64.4982 896 62.2113C896 59.9378 896.373 58.196 897.12 56.9861C897.867 55.7762 898.946 55.1712 900.36 55.1712ZM897.42 62.2113C897.42 63.8334 897.567 65.1032 897.86 66.0206L902.3 57.1855C901.833 56.5606 901.186 56.2482 900.36 56.2482C899.44 56.2482 898.72 56.7401 898.2 57.724C897.68 58.6946 897.42 60.1904 897.42 62.2113ZM900.36 68.1745C901.293 68.1745 902.02 67.6892 902.54 66.7186C903.06 65.7347 903.319 64.2323 903.319 62.2113C903.319 60.4962 903.153 59.1666 902.82 58.2226L898.38 67.1374C898.86 67.8288 899.52 68.1745 900.36 68.1745Z" fill="url(#paint74_linear_175_198)"/>
<path d="M901.56 90.8078H904.499V91.8648H896.88V90.8078H900.28V79.5994L897.04 81.5339L896.48 80.6365L900.48 78.1635H901.56V90.8078Z" fill="url(#paint75_linear_175_198)"/>
<path d="M900.36 100.757C901.786 100.757 902.866 101.362 903.599 102.572C904.346 103.768 904.719 105.51 904.719 107.797C904.719 110.084 904.346 111.832 903.599 113.042C902.866 114.252 901.786 114.857 900.36 114.857C898.946 114.857 897.867 114.252 897.12 113.042C896.373 111.832 896 110.084 896 107.797C896 105.523 896.373 103.782 897.12 102.572C897.867 101.362 898.946 100.757 900.36 100.757ZM897.42 107.797C897.42 109.419 897.567 110.689 897.86 111.606L902.3 102.771C901.833 102.146 901.186 101.834 900.36 101.834C899.44 101.834 898.72 102.326 898.2 103.31C897.68 104.28 897.42 105.776 897.42 107.797ZM900.36 113.76C901.293 113.76 902.02 113.275 902.54 112.304C903.06 111.32 903.319 109.818 903.319 107.797C903.319 106.082 903.153 104.752 902.82 103.808L898.38 112.723C898.86 113.414 899.52 113.76 900.36 113.76Z" fill="url(#paint76_linear_175_198)"/>
<path d="M901.56 136.393H904.499V137.45H896.88V136.393H900.28V125.185L897.04 127.12L896.48 126.222L900.48 123.749H901.56V136.393Z" fill="url(#paint77_linear_175_198)"/>
<path d="M901.56 159.186H904.499V160.243H896.88V159.186H900.28V147.978L897.04 149.912L896.48 149.015L900.48 146.542H901.56V159.186Z" fill="url(#paint78_linear_175_198)"/>
<path d="M938.7 -0.363452H941.64V0.693562H934.02V-0.363452H937.42V-11.5718L934.18 -9.63727L933.62 -10.5347L937.62 -13.0078H938.7V-0.363452Z" fill="url(#paint79_linear_175_198)"/>
<path d="M937.5 9.58561C938.927 9.58561 940.006 10.1906 940.74 11.4005C941.486 12.5971 941.86 14.3389 941.86 16.6257C941.86 18.9126 941.486 20.661 940.74 21.8709C940.006 23.0808 938.927 23.6858 937.5 23.6858C936.087 23.6858 935.007 23.0808 934.26 21.8709C933.514 20.661 933.14 18.9126 933.14 16.6257C933.14 14.3522 933.514 12.6104 934.26 11.4005C935.007 10.1906 936.087 9.58561 937.5 9.58561ZM934.56 16.6257C934.56 18.2478 934.707 19.5176 935 20.435L939.44 11.5999C938.973 10.975 938.327 10.6626 937.5 10.6626C936.58 10.6626 935.86 11.1545 935.34 12.1384C934.82 13.109 934.56 14.6048 934.56 16.6257ZM937.5 22.5889C938.433 22.5889 939.16 22.1036 939.68 21.133C940.2 20.1491 940.46 18.6467 940.46 16.6257C940.46 14.9106 940.293 13.581 939.96 12.637L935.52 21.5518C936 22.2432 936.66 22.5889 937.5 22.5889Z" fill="url(#paint80_linear_175_198)"/>
<path d="M938.7 45.2221H941.64V46.2792H934.02V45.2221H937.42V34.0138L934.18 35.9483L933.62 35.0509L937.62 32.5778H938.7V45.2221Z" fill="url(#paint81_linear_175_198)"/>
<path d="M938.7 68.015H941.64V69.072H934.02V68.015H937.42V56.8066L934.18 58.7411L933.62 57.8437L937.62 55.3706H938.7V68.015Z" fill="url(#paint82_linear_175_198)"/>
<path d="M937.5 77.964C938.927 77.964 940.006 78.569 940.74 79.7789C941.486 80.9755 941.86 82.7173 941.86 85.0041C941.86 87.291 941.486 89.0394 940.74 90.2493C940.006 91.4593 938.927 92.0642 937.5 92.0642C936.087 92.0642 935.007 91.4593 934.26 90.2493C933.514 89.0394 933.14 87.291 933.14 85.0041C933.14 82.7306 933.514 80.9888 934.26 79.7789C935.007 78.569 936.087 77.964 937.5 77.964ZM934.56 85.0041C934.56 86.6262 934.707 87.896 935 88.8134L939.44 79.9783C938.973 79.3534 938.327 79.041 937.5 79.041C936.58 79.041 935.86 79.5329 935.34 80.5168C934.82 81.4874 934.56 82.9832 934.56 85.0041ZM937.5 90.9673C938.433 90.9673 939.16 90.482 939.68 89.5114C940.2 88.5275 940.46 87.0251 940.46 85.0041C940.46 83.289 940.293 81.9594 939.96 81.0154L935.52 89.9302C936 90.6216 936.66 90.9673 937.5 90.9673Z" fill="url(#paint83_linear_175_198)"/>
<path d="M938.7 113.601H941.64V114.658H934.02V113.601H937.42V102.392L934.18 104.327L933.62 103.429L937.62 100.956H938.7V113.601Z" fill="url(#paint84_linear_175_198)"/>
<path d="M938.7 136.393H941.64V137.45H934.02V136.393H937.42V125.185L934.18 127.12L933.62 126.222L937.62 123.749H938.7V136.393Z" fill="url(#paint85_linear_175_198)"/>
<path d="M937.5 146.342C938.927 146.342 940.006 146.947 940.74 148.157C941.486 149.354 941.86 151.096 941.86 153.383C941.86 155.669 941.486 157.418 940.74 158.628C940.006 159.838 938.927 160.443 937.5 160.443C936.087 160.443 935.007 159.838 934.26 158.628C933.514 157.418 933.14 155.669 933.14 153.383C933.14 151.109 933.514 149.367 934.26 148.157C935.007 146.947 936.087 146.342 937.5 146.342ZM934.56 153.383C934.56 155.005 934.707 156.274 935 157.192L939.44 148.357C938.973 147.732 938.327 147.419 937.5 147.419C936.58 147.419 935.86 147.911 935.34 148.895C934.82 149.866 934.56 151.362 934.56 153.383ZM937.5 159.346C938.433 159.346 939.16 158.86 939.68 157.89C940.2 156.906 940.46 155.404 940.46 153.383C940.46 151.667 940.293 150.338 939.96 149.394L935.52 158.309C936 159 936.66 159.346 937.5 159.346Z" fill="url(#paint86_linear_175_198)"/>
<path d="M938.7 181.979H941.64V183.036H934.02V181.979H937.42V170.771L934.18 172.705L933.62 171.808L937.62 169.335H938.7V181.979Z" fill="url(#paint87_linear_175_198)"/>
<path d="M937.5 191.928C938.927 191.928 940.006 192.533 940.74 193.743C941.486 194.94 941.86 196.681 941.86 198.968C941.86 201.255 941.486 203.003 940.74 204.213C940.006 205.423 938.927 206.028 937.5 206.028C936.087 206.028 935.007 205.423 934.26 204.213C933.514 203.003 933.14 201.255 933.14 198.968C933.14 196.695 933.514 194.953 934.26 193.743C935.007 192.533 936.087 191.928 937.5 191.928ZM934.56 198.968C934.56 200.59 934.707 201.86 935 202.777L939.44 193.942C938.973 193.317 938.327 193.005 937.5 193.005C936.58 193.005 935.86 193.497 935.34 194.481C934.82 195.451 934.56 196.947 934.56 198.968ZM937.5 204.931C938.433 204.931 939.16 204.446 939.68 203.475C940.2 202.492 940.46 200.989 940.46 198.968C940.46 197.253 940.293 195.923 939.96 194.979L935.52 203.894C936 204.586 936.66 204.931 937.5 204.931Z" fill="url(#paint88_linear_175_198)"/>
<path d="M974.64 -13.2072C976.067 -13.2072 977.147 -12.6022 977.88 -11.3923C978.627 -10.1957 979 -8.45395 979 -6.16707C979 -3.88019 978.627 -2.13179 977.88 -0.921876C977.147 0.288042 976.067 0.893001 974.64 0.893001C973.227 0.893001 972.147 0.288042 971.401 -0.921876C970.654 -2.13179 970.281 -3.88019 970.281 -6.16707C970.281 -8.44065 970.654 -10.1824 971.401 -11.3923C972.147 -12.6022 973.227 -13.2072 974.64 -13.2072ZM971.7 -6.16707C971.7 -4.54498 971.847 -3.27523 972.14 -2.35782L976.58 -11.1929C976.114 -11.8178 975.467 -12.1302 974.64 -12.1302C973.72 -12.1302 973 -11.6383 972.48 -10.6544C971.96 -9.68381 971.7 -8.18803 971.7 -6.16707ZM974.64 -0.203903C975.574 -0.203903 976.3 -0.689198 976.82 -1.65979C977.34 -2.64368 977.6 -4.14611 977.6 -6.16707C977.6 -7.88223 977.433 -9.21181 977.1 -10.1558L972.66 -1.24098C973.14 -0.549596 973.8 -0.203903 974.64 -0.203903Z" fill="url(#paint89_linear_175_198)"/>
<path d="M975.84 22.4293H978.78V23.4864H971.161V22.4293H974.56V11.221L971.321 13.1555L970.761 12.2581L974.76 9.78504H975.84V22.4293Z" fill="url(#paint90_linear_175_198)"/>
<path d="M975.84 45.2221H978.78V46.2792H971.161V45.2221H974.56V34.0138L971.321 35.9483L970.761 35.0509L974.76 32.5778H975.84V45.2221Z" fill="url(#paint91_linear_175_198)"/>
<path d="M974.64 55.1712C976.067 55.1712 977.147 55.7762 977.88 56.9861C978.627 58.1827 979 59.9245 979 62.2113C979 64.4982 978.627 66.2466 977.88 67.4565C977.147 68.6664 976.067 69.2714 974.64 69.2714C973.227 69.2714 972.147 68.6664 971.401 67.4565C970.654 66.2466 970.281 64.4982 970.281 62.2113C970.281 59.9378 970.654 58.196 971.401 56.9861C972.147 55.7762 973.227 55.1712 974.64 55.1712ZM971.7 62.2113C971.7 63.8334 971.847 65.1032 972.14 66.0206L976.58 57.1855C976.114 56.5606 975.467 56.2482 974.64 56.2482C973.72 56.2482 973 56.7401 972.48 57.724C971.96 58.6946 971.7 60.1904 971.7 62.2113ZM974.64 68.1745C975.574 68.1745 976.3 67.6892 976.82 66.7186C977.34 65.7347 977.6 64.2323 977.6 62.2113C977.6 60.4962 977.433 59.1666 977.1 58.2226L972.66 67.1374C973.14 67.8288 973.8 68.1745 974.64 68.1745Z" fill="url(#paint92_linear_175_198)"/>
<path d="M974.64 77.964C976.067 77.964 977.147 78.569 977.88 79.7789C978.627 80.9755 979 82.7173 979 85.0041C979 87.291 978.627 89.0394 977.88 90.2493C977.147 91.4593 976.067 92.0642 974.64 92.0642C973.227 92.0642 972.147 91.4593 971.401 90.2493C970.654 89.0394 970.281 87.291 970.281 85.0041C970.281 82.7306 970.654 80.9888 971.401 79.7789C972.147 78.569 973.227 77.964 974.64 77.964ZM971.7 85.0041C971.7 86.6262 971.847 87.896 972.14 88.8134L976.58 79.9783C976.114 79.3534 975.467 79.041 974.64 79.041C973.72 79.041 973 79.5329 972.48 80.5168C971.96 81.4874 971.7 82.9832 971.7 85.0041ZM974.64 90.9673C975.574 90.9673 976.3 90.482 976.82 89.5114C977.34 88.5275 977.6 87.0251 977.6 85.0041C977.6 83.289 977.433 81.9594 977.1 81.0154L972.66 89.9302C973.14 90.6216 973.8 90.9673 974.64 90.9673Z" fill="url(#paint93_linear_175_198)"/>
</g>
<defs>
<filter id="filter0_f_175_198" x="-559.19" y="-722.19" width="2141.38" height="1500.38" filterUnits="userSpaceOnUse" color-interpolation-filters="sRGB">
<feFlood flood-opacity="0" result="BackgroundImageFix"/>
<feBlend mode="normal" in="SourceGraphic" in2="BackgroundImageFix" result="shape"/>
<feGaussianBlur stdDeviation="200.095" result="effect1_foregroundBlur_175_198"/>
</filter>
<linearGradient id="paint0_linear_175_198" x1="51.5" y1="264" x2="51.5" y2="575.381" gradientUnits="userSpaceOnUse">
<stop stop-color="#F7DD43"/>
<stop offset="1" stop-color="#F7DD43" stop-opacity="0"/>
</linearGradient>
<linearGradient id="paint1_linear_175_198" x1="51.5" y1="264" x2="51.5" y2="575.381" gradientUnits="userSpaceOnUse">
<stop stop-color="#F7DD43"/>
<stop offset="1" stop-color="#F7DD43" stop-opacity="0"/>
</linearGradient>
<linearGradient id="paint2_linear_175_198" x1="51.5" y1="264" x2="51.5" y2="575.381" gradientUnits="userSpaceOnUse">
<stop stop-color="#F7DD43"/>
<stop offset="1" stop-color="#F7DD43" stop-opacity="0"/>
</linearGradient>
<linearGradient id="paint3_linear_175_198" x1="51.5" y1="264" x2="51.5" y2="575.381" gradientUnits="userSpaceOnUse">
<stop stop-color="#F7DD43"/>
<stop offset="1" stop-color="#F7DD43" stop-opacity="0"/>
</linearGradient>
<linearGradient id="paint4_linear_175_198" x1="51.5" y1="264" x2="51.5" y2="575.381" gradientUnits="userSpaceOnUse">
<stop stop-color="#F7DD43"/>
<stop offset="1" stop-color="#F7DD43" stop-opacity="0"/>
</linearGradient>
<linearGradient id="paint5_linear_175_198" x1="51.5" y1="264" x2="51.5" y2="575.381" gradientUnits="userSpaceOnUse">
<stop stop-color="#F7DD43"/>
<stop offset="1" stop-color="#F7DD43" stop-opacity="0"/>
</linearGradient>
<linearGradient id="paint6_linear_175_198" x1="51.5" y1="264" x2="51.5" y2="575.381" gradientUnits="userSpaceOnUse">
<stop stop-color="#F7DD43"/>
<stop offset="1" stop-color="#F7DD43" stop-opacity="0"/>
</linearGradient>
<linearGradient id="paint7_linear_175_198" x1="51.5" y1="264" x2="51.5" y2="575.381" gradientUnits="userSpaceOnUse">
<stop stop-color="#F7DD43"/>
<stop offset="1" stop-color="#F7DD43" stop-opacity="0"/>
</linearGradient>
<linearGradient id="paint8_linear_175_198" x1="51.5" y1="264" x2="51.5" y2="575.381" gradientUnits="userSpaceOnUse">
<stop stop-color="#F7DD43"/>
<stop offset="1" stop-color="#F7DD43" stop-opacity="0"/>
</linearGradient>
<linearGradient id="paint9_linear_175_198" x1="51.5" y1="264" x2="51.5" y2="575.381" gradientUnits="userSpaceOnUse">
<stop stop-color="#F7DD43"/>
<stop offset="1" stop-color="#F7DD43" stop-opacity="0"/>
</linearGradient>
<linearGradient id="paint10_linear_175_198" x1="51.5" y1="264" x2="51.5" y2="575.381" gradientUnits="userSpaceOnUse">
<stop stop-color="#F7DD43"/>
<stop offset="1" stop-color="#F7DD43" stop-opacity="0"/>
</linearGradient>
<linearGradient id="paint11_linear_175_198" x1="51.5" y1="264" x2="51.5" y2="575.381" gradientUnits="userSpaceOnUse">
<stop stop-color="#F7DD43"/>
<stop offset="1" stop-color="#F7DD43" stop-opacity="0"/>
</linearGradient>
<linearGradient id="paint12_linear_175_198" x1="51.5" y1="264" x2="51.5" y2="575.381" gradientUnits="userSpaceOnUse">
<stop stop-color="#F7DD43"/>
<stop offset="1" stop-color="#F7DD43" stop-opacity="0"/>
</linearGradient>
<linearGradient id="paint13_linear_175_198" x1="51.5" y1="264" x2="51.5" y2="575.381" gradientUnits="userSpaceOnUse">
<stop stop-color="#F7DD43"/>
<stop offset="1" stop-color="#F7DD43" stop-opacity="0"/>
</linearGradient>
<linearGradient id="paint14_linear_175_198" x1="51.5" y1="264" x2="51.5" y2="575.381" gradientUnits="userSpaceOnUse">
<stop stop-color="#F7DD43"/>
<stop offset="1" stop-color="#F7DD43" stop-opacity="0"/>
</linearGradient>
<linearGradient id="paint15_linear_175_198" x1="51.5" y1="264" x2="51.5" y2="575.381" gradientUnits="userSpaceOnUse">
<stop stop-color="#F7DD43"/>
<stop offset="1" stop-color="#F7DD43" stop-opacity="0"/>
</linearGradient>
<linearGradient id="paint16_linear_175_198" x1="51.5" y1="264" x2="51.5" y2="575.381" gradientUnits="userSpaceOnUse">
<stop stop-color="#F7DD43"/>
<stop offset="1" stop-color="#F7DD43" stop-opacity="0"/>
</linearGradient>
<linearGradient id="paint17_linear_175_198" x1="51.5" y1="264" x2="51.5" y2="575.381" gradientUnits="userSpaceOnUse">
<stop stop-color="#F7DD43"/>
<stop offset="1" stop-color="#F7DD43" stop-opacity="0"/>
</linearGradient>
<linearGradient id="paint18_linear_175_198" x1="51.5" y1="264" x2="51.5" y2="575.381" gradientUnits="userSpaceOnUse">
<stop stop-color="#F7DD43"/>
<stop offset="1" stop-color="#F7DD43" stop-opacity="0"/>
</linearGradient>
<linearGradient id="paint19_linear_175_198" x1="51.5" y1="264" x2="51.5" y2="575.381" gradientUnits="userSpaceOnUse">
<stop stop-color="#F7DD43"/>
<stop offset="1" stop-color="#F7DD43" stop-opacity="0"/>
</linearGradient>
<linearGradient id="paint20_linear_175_198" x1="51.5" y1="264" x2="51.5" y2="575.381" gradientUnits="userSpaceOnUse">
<stop stop-color="#F7DD43"/>
<stop offset="1" stop-color="#F7DD43" stop-opacity="0"/>
</linearGradient>
<linearGradient id="paint21_linear_175_198" x1="51.5" y1="264" x2="51.5" y2="575.381" gradientUnits="userSpaceOnUse">
<stop stop-color="#F7DD43"/>
<stop offset="1" stop-color="#F7DD43" stop-opacity="0"/>
</linearGradient>
<linearGradient id="paint22_linear_175_198" x1="51.5" y1="264" x2="51.5" y2="575.381" gradientUnits="userSpaceOnUse">
<stop stop-color="#F7DD43"/>
<stop offset="1" stop-color="#F7DD43" stop-opacity="0"/>
</linearGradient>
<linearGradient id="paint23_linear_175_198" x1="51.5" y1="264" x2="51.5" y2="575.381" gradientUnits="userSpaceOnUse">
<stop stop-color="#F7DD43"/>
<stop offset="1" stop-color="#F7DD43" stop-opacity="0"/>
</linearGradient>
<linearGradient id="paint24_linear_175_198" x1="51.5" y1="264" x2="51.5" y2="575.381" gradientUnits="userSpaceOnUse">
<stop stop-color="#F7DD43"/>
<stop offset="1" stop-color="#F7DD43" stop-opacity="0"/>
</linearGradient>
<linearGradient id="paint25_linear_175_198" x1="51.5" y1="264" x2="51.5" y2="575.381" gradientUnits="userSpaceOnUse">
<stop stop-color="#F7DD43"/>
<stop offset="1" stop-color="#F7DD43" stop-opacity="0"/>
</linearGradient>
<linearGradient id="paint26_linear_175_198" x1="51.5" y1="264" x2="51.5" y2="575.381" gradientUnits="userSpaceOnUse">
<stop stop-color="#F7DD43"/>
<stop offset="1" stop-color="#F7DD43" stop-opacity="0"/>
</linearGradient>
<linearGradient id="paint27_linear_175_198" x1="51.5" y1="264" x2="51.5" y2="575.381" gradientUnits="userSpaceOnUse">
<stop stop-color="#F7DD43"/>
<stop offset="1" stop-color="#F7DD43" stop-opacity="0"/>
</linearGradient>
<linearGradient id="paint28_linear_175_198" x1="51.5" y1="264" x2="51.5" y2="575.381" gradientUnits="userSpaceOnUse">
<stop stop-color="#F7DD43"/>
<stop offset="1" stop-color="#F7DD43" stop-opacity="0"/>
</linearGradient>
<linearGradient id="paint29_linear_175_198" x1="51.5" y1="264" x2="51.5" y2="575.381" gradientUnits="userSpaceOnUse">
<stop stop-color="#F7DD43"/>
<stop offset="1" stop-color="#F7DD43" stop-opacity="0"/>
</linearGradient>
<linearGradient id="paint30_linear_175_198" x1="51.5" y1="264" x2="51.5" y2="575.381" gradientUnits="userSpaceOnUse">
<stop stop-color="#F7DD43"/>
<stop offset="1" stop-color="#F7DD43" stop-opacity="0"/>
</linearGradient>
<linearGradient id="paint31_linear_175_198" x1="51.5" y1="264" x2="51.5" y2="575.381" gradientUnits="userSpaceOnUse">
<stop stop-color="#F7DD43"/>
<stop offset="1" stop-color="#F7DD43" stop-opacity="0"/>
</linearGradient>
<linearGradient id="paint32_linear_175_198" x1="51.5" y1="264" x2="51.5" y2="575.381" gradientUnits="userSpaceOnUse">
<stop stop-color="#F7DD43"/>
<stop offset="1" stop-color="#F7DD43" stop-opacity="0"/>
</linearGradient>
<linearGradient id="paint33_linear_175_198" x1="51.5" y1="264" x2="51.5" y2="575.381" gradientUnits="userSpaceOnUse">
<stop stop-color="#F7DD43"/>
<stop offset="1" stop-color="#F7DD43" stop-opacity="0"/>
</linearGradient>
<linearGradient id="paint34_linear_175_198" x1="51.5" y1="264" x2="51.5" y2="575.381" gradientUnits="userSpaceOnUse">
<stop stop-color="#F7DD43"/>
<stop offset="1" stop-color="#F7DD43" stop-opacity="0"/>
</linearGradient>
<linearGradient id="paint35_linear_175_198" x1="51.5" y1="264" x2="51.5" y2="575.381" gradientUnits="userSpaceOnUse">
<stop stop-color="#F7DD43"/>
<stop offset="1" stop-color="#F7DD43" stop-opacity="0"/>
</linearGradient>
<linearGradient id="paint36_linear_175_198" x1="51.5" y1="264" x2="51.5" y2="575.381" gradientUnits="userSpaceOnUse">
<stop stop-color="#F7DD43"/>
<stop offset="1" stop-color="#F7DD43" stop-opacity="0"/>
</linearGradient>
<linearGradient id="paint37_linear_175_198" x1="51.5" y1="264" x2="51.5" y2="575.381" gradientUnits="userSpaceOnUse">
<stop stop-color="#F7DD43"/>
<stop offset="1" stop-color="#F7DD43" stop-opacity="0"/>
</linearGradient>
<linearGradient id="paint38_linear_175_198" x1="51.5" y1="264" x2="51.5" y2="575.381" gradientUnits="userSpaceOnUse">
<stop stop-color="#F7DD43"/>
<stop offset="1" stop-color="#F7DD43" stop-opacity="0"/>
</linearGradient>
<linearGradient id="paint39_linear_175_198" x1="51.5" y1="264" x2="51.5" y2="575.381" gradientUnits="userSpaceOnUse">
<stop stop-color="#F7DD43"/>
<stop offset="1" stop-color="#F7DD43" stop-opacity="0"/>
</linearGradient>
<linearGradient id="paint40_linear_175_198" x1="51.5" y1="264" x2="51.5" y2="575.381" gradientUnits="userSpaceOnUse">
<stop stop-color="#F7DD43"/>
<stop offset="1" stop-color="#F7DD43" stop-opacity="0"/>
</linearGradient>
<linearGradient id="paint41_linear_175_198" x1="51.5" y1="264" x2="51.5" y2="575.381" gradientUnits="userSpaceOnUse">
<stop stop-color="#F7DD43"/>
<stop offset="1" stop-color="#F7DD43" stop-opacity="0"/>
</linearGradient>
<linearGradient id="paint42_linear_175_198" x1="51.5" y1="264" x2="51.5" y2="575.381" gradientUnits="userSpaceOnUse">
<stop stop-color="#F7DD43"/>
<stop offset="1" stop-color="#F7DD43" stop-opacity="0"/>
</linearGradient>
<linearGradient id="paint43_linear_175_198" x1="51.5" y1="264" x2="51.5" y2="575.381" gradientUnits="userSpaceOnUse">
<stop stop-color="#F7DD43"/>
<stop offset="1" stop-color="#F7DD43" stop-opacity="0"/>
</linearGradient>
<linearGradient id="paint44_linear_175_198" x1="51.5" y1="264" x2="51.5" y2="575.381" gradientUnits="userSpaceOnUse">
<stop stop-color="#F7DD43"/>
<stop offset="1" stop-color="#F7DD43" stop-opacity="0"/>
</linearGradient>
<linearGradient id="paint45_linear_175_198" x1="51.5" y1="264" x2="51.5" y2="575.381" gradientUnits="userSpaceOnUse">
<stop stop-color="#F7DD43"/>
<stop offset="1" stop-color="#F7DD43" stop-opacity="0"/>
</linearGradient>
<linearGradient id="paint46_linear_175_198" x1="51.5" y1="264" x2="51.5" y2="575.381" gradientUnits="userSpaceOnUse">
<stop stop-color="#F7DD43"/>
<stop offset="1" stop-color="#F7DD43" stop-opacity="0"/>
</linearGradient>
<linearGradient id="paint47_linear_175_198" x1="937.5" y1="-36" x2="937.5" y2="262.818" gradientUnits="userSpaceOnUse">
<stop stop-color="#F7DD43"/>
<stop offset="1" stop-color="#F7DD43" stop-opacity="0"/>
</linearGradient>
<linearGradient id="paint48_linear_175_198" x1="937.5" y1="-36" x2="937.5" y2="262.818" gradientUnits="userSpaceOnUse">
<stop stop-color="#F7DD43"/>
<stop offset="1" stop-color="#F7DD43" stop-opacity="0"/>
</linearGradient>
<linearGradient id="paint49_linear_175_198" x1="937.5" y1="-36" x2="937.5" y2="262.818" gradientUnits="userSpaceOnUse">
<stop stop-color="#F7DD43"/>
<stop offset="1" stop-color="#F7DD43" stop-opacity="0"/>
</linearGradient>
<linearGradient id="paint50_linear_175_198" x1="937.5" y1="-36" x2="937.5" y2="262.818" gradientUnits="userSpaceOnUse">
<stop stop-color="#F7DD43"/>
<stop offset="1" stop-color="#F7DD43" stop-opacity="0"/>
</linearGradient>
<linearGradient id="paint51_linear_175_198" x1="937.5" y1="-36" x2="937.5" y2="262.818" gradientUnits="userSpaceOnUse">
<stop stop-color="#F7DD43"/>
<stop offset="1" stop-color="#F7DD43" stop-opacity="0"/>
</linearGradient>
<linearGradient id="paint52_linear_175_198" x1="937.5" y1="-36" x2="937.5" y2="262.818" gradientUnits="userSpaceOnUse">
<stop stop-color="#F7DD43"/>
<stop offset="1" stop-color="#F7DD43" stop-opacity="0"/>
</linearGradient>
<linearGradient id="paint53_linear_175_198" x1="937.5" y1="-36" x2="937.5" y2="262.818" gradientUnits="userSpaceOnUse">
<stop stop-color="#F7DD43"/>
<stop offset="1" stop-color="#F7DD43" stop-opacity="0"/>
</linearGradient>
<linearGradient id="paint54_linear_175_198" x1="937.5" y1="-36" x2="937.5" y2="262.818" gradientUnits="userSpaceOnUse">
<stop stop-color="#F7DD43"/>
<stop offset="1" stop-color="#F7DD43" stop-opacity="0"/>
</linearGradient>
<linearGradient id="paint55_linear_175_198" x1="937.5" y1="-36" x2="937.5" y2="262.818" gradientUnits="userSpaceOnUse">
<stop stop-color="#F7DD43"/>
<stop offset="1" stop-color="#F7DD43" stop-opacity="0"/>
</linearGradient>
<linearGradient id="paint56_linear_175_198" x1="937.5" y1="-36" x2="937.5" y2="262.818" gradientUnits="userSpaceOnUse">
<stop stop-color="#F7DD43"/>
<stop offset="1" stop-color="#F7DD43" stop-opacity="0"/>
</linearGradient>
<linearGradient id="paint57_linear_175_198" x1="937.5" y1="-36" x2="937.5" y2="262.818" gradientUnits="userSpaceOnUse">
<stop stop-color="#F7DD43"/>
<stop offset="1" stop-color="#F7DD43" stop-opacity="0"/>
</linearGradient>
<linearGradient id="paint58_linear_175_198" x1="937.5" y1="-36" x2="937.5" y2="262.818" gradientUnits="userSpaceOnUse">
<stop stop-color="#F7DD43"/>
<stop offset="1" stop-color="#F7DD43" stop-opacity="0"/>
</linearGradient>
<linearGradient id="paint59_linear_175_198" x1="937.5" y1="-36" x2="937.5" y2="262.818" gradientUnits="userSpaceOnUse">
<stop stop-color="#F7DD43"/>
<stop offset="1" stop-color="#F7DD43" stop-opacity="0"/>
</linearGradient>
<linearGradient id="paint60_linear_175_198" x1="937.5" y1="-36" x2="937.5" y2="262.818" gradientUnits="userSpaceOnUse">
<stop stop-color="#F7DD43"/>
<stop offset="1" stop-color="#F7DD43" stop-opacity="0"/>
</linearGradient>
<linearGradient id="paint61_linear_175_198" x1="937.5" y1="-36" x2="937.5" y2="262.818" gradientUnits="userSpaceOnUse">
<stop stop-color="#F7DD43"/>
<stop offset="1" stop-color="#F7DD43" stop-opacity="0"/>
</linearGradient>
<linearGradient id="paint62_linear_175_198" x1="937.5" y1="-36" x2="937.5" y2="262.818" gradientUnits="userSpaceOnUse">
<stop stop-color="#F7DD43"/>
<stop offset="1" stop-color="#F7DD43" stop-opacity="0"/>
</linearGradient>
<linearGradient id="paint63_linear_175_198" x1="937.5" y1="-36" x2="937.5" y2="262.818" gradientUnits="userSpaceOnUse">
<stop stop-color="#F7DD43"/>
<stop offset="1" stop-color="#F7DD43" stop-opacity="0"/>
</linearGradient>
<linearGradient id="paint64_linear_175_198" x1="937.5" y1="-36" x2="937.5" y2="262.818" gradientUnits="userSpaceOnUse">
<stop stop-color="#F7DD43"/>
<stop offset="1" stop-color="#F7DD43" stop-opacity="0"/>
</linearGradient>
<linearGradient id="paint65_linear_175_198" x1="937.5" y1="-36" x2="937.5" y2="262.818" gradientUnits="userSpaceOnUse">
<stop stop-color="#F7DD43"/>
<stop offset="1" stop-color="#F7DD43" stop-opacity="0"/>
</linearGradient>
<linearGradient id="paint66_linear_175_198" x1="937.5" y1="-36" x2="937.5" y2="262.818" gradientUnits="userSpaceOnUse">
<stop stop-color="#F7DD43"/>
<stop offset="1" stop-color="#F7DD43" stop-opacity="0"/>
</linearGradient>
<linearGradient id="paint67_linear_175_198" x1="937.5" y1="-36" x2="937.5" y2="262.818" gradientUnits="userSpaceOnUse">
<stop stop-color="#F7DD43"/>
<stop offset="1" stop-color="#F7DD43" stop-opacity="0"/>
</linearGradient>
<linearGradient id="paint68_linear_175_198" x1="937.5" y1="-36" x2="937.5" y2="262.818" gradientUnits="userSpaceOnUse">
<stop stop-color="#F7DD43"/>
<stop offset="1" stop-color="#F7DD43" stop-opacity="0"/>
</linearGradient>
<linearGradient id="paint69_linear_175_198" x1="937.5" y1="-36" x2="937.5" y2="262.818" gradientUnits="userSpaceOnUse">
<stop stop-color="#F7DD43"/>
<stop offset="1" stop-color="#F7DD43" stop-opacity="0"/>
</linearGradient>
<linearGradient id="paint70_linear_175_198" x1="937.5" y1="-36" x2="937.5" y2="262.818" gradientUnits="userSpaceOnUse">
<stop stop-color="#F7DD43"/>
<stop offset="1" stop-color="#F7DD43" stop-opacity="0"/>
</linearGradient>
<linearGradient id="paint71_linear_175_198" x1="937.5" y1="-36" x2="937.5" y2="262.818" gradientUnits="userSpaceOnUse">
<stop stop-color="#F7DD43"/>
<stop offset="1" stop-color="#F7DD43" stop-opacity="0"/>
</linearGradient>
<linearGradient id="paint72_linear_175_198" x1="937.5" y1="-36" x2="937.5" y2="262.818" gradientUnits="userSpaceOnUse">
<stop stop-color="#F7DD43"/>
<stop offset="1" stop-color="#F7DD43" stop-opacity="0"/>
</linearGradient>
<linearGradient id="paint73_linear_175_198" x1="937.5" y1="-36" x2="937.5" y2="262.818" gradientUnits="userSpaceOnUse">
<stop stop-color="#F7DD43"/>
<stop offset="1" stop-color="#F7DD43" stop-opacity="0"/>
</linearGradient>
<linearGradient id="paint74_linear_175_198" x1="937.5" y1="-36" x2="937.5" y2="262.818" gradientUnits="userSpaceOnUse">
<stop stop-color="#F7DD43"/>
<stop offset="1" stop-color="#F7DD43" stop-opacity="0"/>
</linearGradient>
<linearGradient id="paint75_linear_175_198" x1="937.5" y1="-36" x2="937.5" y2="262.818" gradientUnits="userSpaceOnUse">
<stop stop-color="#F7DD43"/>
<stop offset="1" stop-color="#F7DD43" stop-opacity="0"/>
</linearGradient>
<linearGradient id="paint76_linear_175_198" x1="937.5" y1="-36" x2="937.5" y2="262.818" gradientUnits="userSpaceOnUse">
<stop stop-color="#F7DD43"/>
<stop offset="1" stop-color="#F7DD43" stop-opacity="0"/>
</linearGradient>
<linearGradient id="paint77_linear_175_198" x1="937.5" y1="-36" x2="937.5" y2="262.818" gradientUnits="userSpaceOnUse">
<stop stop-color="#F7DD43"/>
<stop offset="1" stop-color="#F7DD43" stop-opacity="0"/>
</linearGradient>
<linearGradient id="paint78_linear_175_198" x1="937.5" y1="-36" x2="937.5" y2="262.818" gradientUnits="userSpaceOnUse">
<stop stop-color="#F7DD43"/>
<stop offset="1" stop-color="#F7DD43" stop-opacity="0"/>
</linearGradient>
<linearGradient id="paint79_linear_175_198" x1="937.5" y1="-36" x2="937.5" y2="262.818" gradientUnits="userSpaceOnUse">
<stop stop-color="#F7DD43"/>
<stop offset="1" stop-color="#F7DD43" stop-opacity="0"/>
</linearGradient>
<linearGradient id="paint80_linear_175_198" x1="937.5" y1="-36" x2="937.5" y2="262.818" gradientUnits="userSpaceOnUse">
<stop stop-color="#F7DD43"/>
<stop offset="1" stop-color="#F7DD43" stop-opacity="0"/>
</linearGradient>
<linearGradient id="paint81_linear_175_198" x1="937.5" y1="-36" x2="937.5" y2="262.818" gradientUnits="userSpaceOnUse">
<stop stop-color="#F7DD43"/>
<stop offset="1" stop-color="#F7DD43" stop-opacity="0"/>
</linearGradient>
<linearGradient id="paint82_linear_175_198" x1="937.5" y1="-36" x2="937.5" y2="262.818" gradientUnits="userSpaceOnUse">
<stop stop-color="#F7DD43"/>
<stop offset="1" stop-color="#F7DD43" stop-opacity="0"/>
</linearGradient>
<linearGradient id="paint83_linear_175_198" x1="937.5" y1="-36" x2="937.5" y2="262.818" gradientUnits="userSpaceOnUse">
<stop stop-color="#F7DD43"/>
<stop offset="1" stop-color="#F7DD43" stop-opacity="0"/>
</linearGradient>
<linearGradient id="paint84_linear_175_198" x1="937.5" y1="-36" x2="937.5" y2="262.818" gradientUnits="userSpaceOnUse">
<stop stop-color="#F7DD43"/>
<stop offset="1" stop-color="#F7DD43" stop-opacity="0"/>
</linearGradient>
<linearGradient id="paint85_linear_175_198" x1="937.5" y1="-36" x2="937.5" y2="262.818" gradientUnits="userSpaceOnUse">
<stop stop-color="#F7DD43"/>
<stop offset="1" stop-color="#F7DD43" stop-opacity="0"/>
</linearGradient>
<linearGradient id="paint86_linear_175_198" x1="937.5" y1="-36" x2="937.5" y2="262.818" gradientUnits="userSpaceOnUse">
<stop stop-color="#F7DD43"/>
<stop offset="1" stop-color="#F7DD43" stop-opacity="0"/>
</linearGradient>
<linearGradient id="paint87_linear_175_198" x1="937.5" y1="-36" x2="937.5" y2="262.818" gradientUnits="userSpaceOnUse">
<stop stop-color="#F7DD43"/>
<stop offset="1" stop-color="#F7DD43" stop-opacity="0"/>
</linearGradient>
<linearGradient id="paint88_linear_175_198" x1="937.5" y1="-36" x2="937.5" y2="262.818" gradientUnits="userSpaceOnUse">
<stop stop-color="#F7DD43"/>
<stop offset="1" stop-color="#F7DD43" stop-opacity="0"/>
</linearGradient>
<linearGradient id="paint89_linear_175_198" x1="937.5" y1="-36" x2="937.5" y2="262.818" gradientUnits="userSpaceOnUse">
<stop stop-color="#F7DD43"/>
<stop offset="1" stop-color="#F7DD43" stop-opacity="0"/>
</linearGradient>
<linearGradient id="paint90_linear_175_198" x1="937.5" y1="-36" x2="937.5" y2="262.818" gradientUnits="userSpaceOnUse">
<stop stop-color="#F7DD43"/>
<stop offset="1" stop-color="#F7DD43" stop-opacity="0"/>
</linearGradient>
<linearGradient id="paint91_linear_175_198" x1="937.5" y1="-36" x2="937.5" y2="262.818" gradientUnits="userSpaceOnUse">
<stop stop-color="#F7DD43"/>
<stop offset="1" stop-color="#F7DD43" stop-opacity="0"/>
</linearGradient>
<linearGradient id="paint92_linear_175_198" x1="937.5" y1="-36" x2="937.5" y2="262.818" gradientUnits="userSpaceOnUse">
<stop stop-color="#F7DD43"/>
<stop offset="1" stop-color="#F7DD43" stop-opacity="0"/>
</linearGradient>
<linearGradient id="paint93_linear_175_198" x1="937.5" y1="-36" x2="937.5" y2="262.818" gradientUnits="userSpaceOnUse">
<stop stop-color="#F7DD43"/>
<stop offset="1" stop-color="#F7DD43" stop-opacity="0"/>
</linearGradient>
</defs>
</svg>
