<svg width="50" height="51" viewBox="0 0 71 72" fill="none" xmlns="http://www.w3.org/2000/svg">
<g clip-path="url(#clip0_429_515)">
<path d="M35.4062 71.0625C54.8225 71.0625 70.5625 55.3225 70.5625 35.9062C70.5625 16.49 54.8225 0.75 35.4062 0.75C15.99 0.75 0.25 16.49 0.25 35.9062C0.25 55.3225 15.99 71.0625 35.4062 71.0625Z" fill="#F0F0F0"/>
<path d="M47.6346 35.9062C47.6346 38.9633 42.1599 46.606 35.4064 46.606C28.653 46.606 23.1782 38.9633 23.1782 35.9062C23.1782 29.1527 28.653 23.678 35.4064 23.678C42.1599 23.678 47.6346 29.1527 47.6346 35.9062Z" fill="#D80027"/>
<path d="M47.6346 35.9062C47.6346 42.6598 42.1599 48.1344 35.4064 48.1344C28.653 48.1344 23.1782 42.6598 23.1782 35.9062" fill="#0052B4"/>
<path d="M48.3667 46.7151L51.6087 43.4731L53.77 45.6345L50.5281 48.8765L48.3667 46.7151Z" fill="black"/>
<path d="M42.9617 52.1187L46.2037 48.8767L48.365 51.0381L45.123 54.28L42.9617 52.1187Z" fill="black"/>
<path d="M54.8511 53.1989L58.0931 49.9569L60.2544 52.1182L57.0124 55.3602L54.8511 53.1989Z" fill="black"/>
<path d="M49.4465 58.6032L52.6885 55.3613L54.8499 57.5226L51.6079 60.7646L49.4465 58.6032Z" fill="black"/>
<path d="M51.6086 49.9572L54.8506 46.7153L57.012 48.8766L53.77 52.1186L51.6086 49.9572Z" fill="black"/>
<path d="M46.2051 55.3607L49.4471 52.1187L51.6084 54.2801L48.3664 57.522L46.2051 55.3607Z" fill="black"/>
<path d="M54.8655 25.1033L46.2201 16.458L48.3815 14.2966L57.0268 22.9419L54.8655 25.1033Z" fill="black"/>
<path d="M46.2185 22.9428L42.9765 19.7008L45.1378 17.5396L48.3798 20.7815L46.2185 22.9428Z" fill="black"/>
<path d="M51.6218 28.3475L48.3798 25.1055L50.5411 22.9442L53.7831 26.1862L51.6218 28.3475Z" fill="black"/>
<path d="M52.7019 16.4577L49.4599 13.2157L51.6213 11.0543L54.8633 14.2963L52.7019 16.4577Z" fill="black"/>
<path d="M58.1082 21.863L54.8662 18.621L57.0275 16.4597L60.2695 19.7016L58.1082 21.863Z" fill="black"/>
<path d="M12.7134 49.9512L21.3587 58.5965L19.1974 60.7579L10.552 52.1125L12.7134 49.9512Z" fill="black"/>
<path d="M21.3582 52.1108L24.6001 55.3528L22.4389 57.5141L19.1969 54.2721L21.3582 52.1108Z" fill="black"/>
<path d="M15.9543 46.7085L19.1963 49.9505L17.035 52.1118L13.793 48.8698L15.9543 46.7085Z" fill="black"/>
<path d="M19.1965 43.4656L27.8419 52.1109L25.6805 54.2723L17.0352 45.6269L19.1965 43.4656Z" fill="black"/>
<path d="M21.3574 13.209L12.7121 21.8543L10.5507 19.6929L19.1961 11.0476L21.3574 13.209Z" fill="black"/>
<path d="M24.5999 16.4506L15.9545 25.096L13.7932 22.9346L22.4385 14.2893L24.5999 16.4506Z" fill="black"/>
<path d="M27.8445 19.6946L19.1991 28.3399L17.0379 26.1787L25.6832 17.5333L27.8445 19.6946Z" fill="black"/>
</g>
<defs>
<clipPath id="clip0_429_515">
<rect width="70.3125" height="70.3125" fill="white" transform="translate(0.25 0.75)"/>
</clipPath>
</defs>
</svg>
